<mxfile host="Electron" agent="Mozilla/5.0 (X11; Linux x86_64) AppleWebKit/537.36 (KHTML, like Gecko) draw.io/25.0.1 Chrome/128.0.6613.186 Electron/32.2.6 Safari/537.36" version="25.0.1">
  <diagram name="Page-1" id="9njubowyfSg2haKw-gr1">
    <mxGraphModel dx="2920" dy="1319" grid="1" gridSize="10" guides="1" tooltips="1" connect="1" arrows="1" fold="1" page="1" pageScale="1" pageWidth="850" pageHeight="1100" math="0" shadow="0">
      <root>
        <mxCell id="0" />
        <mxCell id="1" parent="0" />
        <mxCell id="1vFqv3vx6G97mwKFcaJa-1" value="" style="rounded=0;whiteSpace=wrap;html=1;fillColor=default;strokeColor=none;" parent="1" vertex="1">
          <mxGeometry x="-180" y="320" width="1060" height="60" as="geometry" />
        </mxCell>
        <mxCell id="xy2FCuA8-idvxYoNVxFc-1" value="vs0_j1b&amp;nbsp; &amp;nbsp; &amp;nbsp; &amp;nbsp; &amp;nbsp; &amp;nbsp; &amp;nbsp; &amp;nbsp; &amp;nbsp; &amp;nbsp; &amp;nbsp;" style="rounded=1;whiteSpace=wrap;html=1;fontSize=18;fontStyle=1;verticalAlign=bottom;align=right;" parent="1" vertex="1">
          <mxGeometry x="-14" y="220" width="730" height="400" as="geometry" />
        </mxCell>
        <mxCell id="mfWc-4PRDOfUY6L-oN2R-3" value="" style="shape=flexArrow;endArrow=classic;html=1;rounded=0;entryX=1;entryY=0.5;entryDx=0;entryDy=0;edgeStyle=elbowEdgeStyle;fillColor=default;" parent="1" target="xy2FCuA8-idvxYoNVxFc-3" edge="1">
          <mxGeometry width="50" height="50" relative="1" as="geometry">
            <mxPoint x="256" y="240" as="sourcePoint" />
            <mxPoint x="-474" y="270" as="targetPoint" />
            <Array as="points">
              <mxPoint x="366" y="380" />
            </Array>
          </mxGeometry>
        </mxCell>
        <mxCell id="xy2FCuA8-idvxYoNVxFc-17" value="&lt;b&gt;Virtual Socket 0 Interface&lt;/b&gt;" style="rounded=1;whiteSpace=wrap;html=1;fontSize=18;dashed=1;verticalAlign=top;" parent="1" vertex="1">
          <mxGeometry x="196" y="90" width="520" height="120" as="geometry" />
        </mxCell>
        <mxCell id="xy2FCuA8-idvxYoNVxFc-2" value="j1b" style="rounded=0;whiteSpace=wrap;html=1;fontSize=18;fontStyle=1" parent="1" vertex="1">
          <mxGeometry x="196" y="420" width="120" height="60" as="geometry" />
        </mxCell>
        <mxCell id="xy2FCuA8-idvxYoNVxFc-3" value="ram32k" style="rounded=0;whiteSpace=wrap;html=1;fontSize=18;fontStyle=1" parent="1" vertex="1">
          <mxGeometry x="196" y="540" width="120" height="60" as="geometry" />
        </mxCell>
        <mxCell id="xy2FCuA8-idvxYoNVxFc-4" value="&lt;div style=&quot;font-size: 18px;&quot;&gt;Register&lt;/div&gt;&lt;div style=&quot;font-size: 18px;&quot;&gt;Interface&lt;/div&gt;" style="rounded=0;whiteSpace=wrap;html=1;fontSize=18;fontStyle=1" parent="1" vertex="1">
          <mxGeometry x="196" y="280" width="120" height="60" as="geometry" />
        </mxCell>
        <mxCell id="xy2FCuA8-idvxYoNVxFc-5" value="j1b_uart" style="rounded=0;whiteSpace=wrap;html=1;fontSize=18;fontStyle=1" parent="1" vertex="1">
          <mxGeometry x="16" y="250" width="120" height="60" as="geometry" />
        </mxCell>
        <mxCell id="xy2FCuA8-idvxYoNVxFc-6" value="" style="shape=flexArrow;endArrow=classic;html=1;rounded=0;" parent="1" source="xy2FCuA8-idvxYoNVxFc-2" target="xy2FCuA8-idvxYoNVxFc-3" edge="1">
          <mxGeometry width="50" height="50" relative="1" as="geometry">
            <mxPoint x="416" y="570" as="sourcePoint" />
            <mxPoint x="466" y="520" as="targetPoint" />
          </mxGeometry>
        </mxCell>
        <mxCell id="xy2FCuA8-idvxYoNVxFc-7" value="&lt;font style=&quot;font-size: 18px;&quot;&gt;j1b_io&lt;/font&gt;" style="shape=flexArrow;endArrow=classic;html=1;rounded=0;" parent="1" source="xy2FCuA8-idvxYoNVxFc-2" target="xy2FCuA8-idvxYoNVxFc-4" edge="1">
          <mxGeometry width="50" height="50" relative="1" as="geometry">
            <mxPoint x="356" y="430" as="sourcePoint" />
            <mxPoint x="406" y="380" as="targetPoint" />
          </mxGeometry>
        </mxCell>
        <mxCell id="xy2FCuA8-idvxYoNVxFc-8" value="&lt;font style=&quot;font-size: 18px;&quot;&gt;rst&lt;/font&gt;" style="endArrow=classic;html=1;rounded=0;edgeStyle=orthogonalEdgeStyle;" parent="1" source="xy2FCuA8-idvxYoNVxFc-4" target="xy2FCuA8-idvxYoNVxFc-2" edge="1">
          <mxGeometry width="50" height="50" relative="1" as="geometry">
            <mxPoint x="286" y="280" as="sourcePoint" />
            <mxPoint x="336" y="230" as="targetPoint" />
            <Array as="points">
              <mxPoint x="346" y="330" />
              <mxPoint x="346" y="450" />
            </Array>
          </mxGeometry>
        </mxCell>
        <mxCell id="xy2FCuA8-idvxYoNVxFc-9" value="" style="shape=flexArrow;endArrow=classic;html=1;rounded=0;edgeStyle=orthogonalEdgeStyle;" parent="1" source="xy2FCuA8-idvxYoNVxFc-4" target="xy2FCuA8-idvxYoNVxFc-5" edge="1">
          <mxGeometry width="50" height="50" relative="1" as="geometry">
            <mxPoint x="206" y="190" as="sourcePoint" />
            <mxPoint x="156" y="310" as="targetPoint" />
          </mxGeometry>
        </mxCell>
        <mxCell id="xy2FCuA8-idvxYoNVxFc-11" value="Wishbone&amp;nbsp;&lt;div&gt;Slave Port&lt;/div&gt;" style="shape=flexArrow;endArrow=classic;html=1;rounded=0;fontSize=18;fillColor=default;" parent="1" target="xy2FCuA8-idvxYoNVxFc-4" edge="1">
          <mxGeometry x="-1" y="-30" width="50" height="50" relative="1" as="geometry">
            <mxPoint x="256" y="180" as="sourcePoint" />
            <mxPoint x="286" y="90" as="targetPoint" />
            <mxPoint x="30" y="-30" as="offset" />
          </mxGeometry>
        </mxCell>
        <mxCell id="xy2FCuA8-idvxYoNVxFc-12" value="&lt;font style=&quot;font-size: 18px;&quot;&gt;Wisbone&amp;nbsp;&lt;/font&gt;&lt;div&gt;&lt;font style=&quot;font-size: 18px;&quot;&gt;Master Port 0&lt;/font&gt;&lt;/div&gt;" style="shape=flexArrow;endArrow=classic;html=1;rounded=0;fillColor=default;" parent="1" edge="1">
          <mxGeometry x="1" y="20" width="50" height="50" relative="1" as="geometry">
            <mxPoint x="406" y="280" as="sourcePoint" />
            <mxPoint x="406" y="190" as="targetPoint" />
            <mxPoint x="20" y="-20" as="offset" />
          </mxGeometry>
        </mxCell>
        <mxCell id="xy2FCuA8-idvxYoNVxFc-13" value="not used" style="text;html=1;align=center;verticalAlign=middle;whiteSpace=wrap;rounded=0;fontSize=18;" parent="1" vertex="1">
          <mxGeometry x="376" y="290" width="60" height="30" as="geometry" />
        </mxCell>
        <mxCell id="xy2FCuA8-idvxYoNVxFc-15" value="&lt;font style=&quot;font-size: 18px;&quot;&gt;irq_in/out&lt;/font&gt;" style="endArrow=classic;startArrow=classic;html=1;rounded=0;" parent="1" edge="1">
          <mxGeometry x="1" y="20" width="50" height="50" relative="1" as="geometry">
            <mxPoint x="629" y="280" as="sourcePoint" />
            <mxPoint x="629" y="190" as="targetPoint" />
            <mxPoint x="20" y="-20" as="offset" />
          </mxGeometry>
        </mxCell>
        <mxCell id="xy2FCuA8-idvxYoNVxFc-16" value="not used" style="text;html=1;align=center;verticalAlign=middle;whiteSpace=wrap;rounded=0;fontSize=18;" parent="1" vertex="1">
          <mxGeometry x="599" y="290" width="60" height="30" as="geometry" />
        </mxCell>
        <mxCell id="mfWc-4PRDOfUY6L-oN2R-1" value="signature&lt;div&gt;reg.&lt;/div&gt;" style="rounded=0;whiteSpace=wrap;html=1;fontSize=18;fontStyle=1" parent="1" vertex="1">
          <mxGeometry x="16" y="340" width="120" height="60" as="geometry" />
        </mxCell>
        <mxCell id="mfWc-4PRDOfUY6L-oN2R-2" value="" style="shape=flexArrow;endArrow=classic;html=1;rounded=0;edgeStyle=orthogonalEdgeStyle;" parent="1" source="xy2FCuA8-idvxYoNVxFc-4" target="mfWc-4PRDOfUY6L-oN2R-1" edge="1">
          <mxGeometry width="50" height="50" relative="1" as="geometry">
            <mxPoint x="-4" y="570" as="sourcePoint" />
            <mxPoint x="46" y="520" as="targetPoint" />
            <Array as="points">
              <mxPoint x="176" y="330" />
              <mxPoint x="176" y="370" />
            </Array>
          </mxGeometry>
        </mxCell>
        <mxCell id="ahvjmSR-_Xd3t-MYqtVg-1" value="&lt;font style=&quot;font-size: 18px;&quot;&gt;Wisbone&amp;nbsp;&lt;/font&gt;&lt;div&gt;&lt;font style=&quot;font-size: 18px;&quot;&gt;Master Port 1&lt;/font&gt;&lt;/div&gt;" style="shape=flexArrow;endArrow=classic;html=1;rounded=0;fillColor=default;" edge="1" parent="1">
          <mxGeometry x="1" y="20" width="50" height="50" relative="1" as="geometry">
            <mxPoint x="523" y="280" as="sourcePoint" />
            <mxPoint x="523" y="190" as="targetPoint" />
            <mxPoint x="20" y="-20" as="offset" />
          </mxGeometry>
        </mxCell>
        <mxCell id="ahvjmSR-_Xd3t-MYqtVg-2" value="not used" style="text;html=1;align=center;verticalAlign=middle;whiteSpace=wrap;rounded=0;fontSize=18;" vertex="1" parent="1">
          <mxGeometry x="493" y="290" width="60" height="30" as="geometry" />
        </mxCell>
      </root>
    </mxGraphModel>
  </diagram>
</mxfile>
